<?xml version="1.0" encoding="utf-8"?>
<!-- Generator: Adobe Illustrator 23.0.6, SVG Export Plug-In . SVG Version: 6.00 Build 0)  -->
<svg version="1.1" id="Layer_1" xmlns="http://www.w3.org/2000/svg" xmlns:xlink="http://www.w3.org/1999/xlink" x="0px" y="0px"
	 viewBox="0 0 57.5 45" style="enable-background:new 0 0 57.5 45;" xml:space="preserve">
<style type="text/css">
	.st0{fill:#63C2CD;}
	.st1{fill:#E6274F;}
	.st2{fill:#F3CF05;}
</style>
<g>
	<path class="st0" d="M42.95,16.44C38.63,4.8,22.72,5.61,13.79,19.46c-3.9,6.05-7.09,18.24,4.4,17.19
		C34.84,35.11,48.3,30.89,42.95,16.44z M18.18,31.73c-5.54,0.49-3.19-4.32-1.95-7c4.56-9.94,17.19-17.25,22.15-6.46
		C43.65,29.72,26.49,30.99,18.18,31.73z"/>
	<g>
		<path class="st1" d="M16.22,24.72c-1.23,2.69-3.58,7.49,1.95,7c8.31-0.73,25.47-2.01,20.2-13.47
			C33.42,7.47,20.79,14.79,16.22,24.72z M19.8,27c-1.51,0.52,10.22-14.46,14.18-6.97C36.48,24.75,23.89,25.59,19.8,27z"/>
	</g>
	<path class="st2" d="M19.8,27c4.09-1.41,16.68-2.25,14.18-6.97C30.02,12.54,18.29,27.52,19.8,27z"/>
</g>
</svg>
