<?xml version="1.0" encoding="utf-8"?>
<!-- Generator: Adobe Illustrator 23.0.6, SVG Export Plug-In . SVG Version: 6.00 Build 0)  -->
<svg version="1.1" id="Layer_1" xmlns="http://www.w3.org/2000/svg" xmlns:xlink="http://www.w3.org/1999/xlink" x="0px" y="0px"
	 viewBox="0 0 319.03 144.39" style="enable-background:new 0 0 319.03 144.39;" xml:space="preserve">
<style type="text/css">
	.st0{fill:#63C2CD;}
	.st1{fill:#E6274F;}
	.st2{fill:#F3CF05;}
</style>
<g>
	<path class="st0" d="M268.09,37.53c-0.45-1.85-1.02-2.64-1.69-2.64c-3.21,0-8.48,18.51-11.18,26.69
		C262.06,51.48,269.37,42.82,268.09,37.53z"/>
	<path class="st0" d="M130.42,81.52c-0.22-1.05-0.88-1.51-1.79-1.51c-1.99,0-5.19,2.22-7.55,5.21c-1.72,2.18-3.34,4.7-4.23,8.96
		c-0.11,1.3,0.09,1.32,0.09,1.32c0.44-0.26,5.77-4.28,6.79-5.11C127.77,87.07,130.96,84.13,130.42,81.52z"/>
	<path class="st0" d="M293.62,86.69c0.09-0.42,0.17-0.82,0.25-1.2c0.48-2.34,0.53-2.59,1.83-4.31c2.56-3.38,2.96-7.85,1.06-11.67
		c-2.67-5.37-8.97-7.81-13.69-7.81c-2.32,0-4.47,0.53-6.34,1.52c-0.35-0.47-0.72-0.93-1.12-1.38c-0.25-0.28-0.5-0.54-0.75-0.8
		c2.15-2.94,4.09-6.05,5.63-9.39c5.26-11.41,4.09-22.57-3.3-31.44c-2.79-3.35-6.52-5.2-10.48-5.2c0,0-0.01,0-0.01,0
		c-10.16,0-15.91,10.58-21.43,26.46c-2.23,6.42-4.33,13.54-6.26,20.51c-2.3-1.28-4.98-1.97-7.82-1.97c-2.36,0-4.83,0.47-7.34,1.39
		c-2.6,0.95-5.14,2.1-7.39,3.1c-0.28,0.12-0.55,0.25-0.82,0.37c-2.98-1.84-6.24-2.51-9.23-2.98c-1.11-0.17-2.34-0.26-3.78-0.26
		c-4.51,0-10.56,0.85-14.72,1.53c-2.58-1.88-5.91-2.92-9.64-2.92c-6.2,0-11.57,2.86-14.01,7.46c-0.06,0.11-0.12,0.23-0.18,0.34
		c-0.62-1.36-1.58-2.67-3.02-3.81c-2.8-2.22-5.82-3.34-8.97-3.34c-2.45,0-6.35,0.7-9.73,4.44c-2.58-2.29-6.03-3.53-9.89-3.53
		c-4.95,0-10.61,2.1-15.74,5.8c-2.34-4.79-6.99-7.71-12.45-7.71c-3.52,0-7.14,1.21-10.77,3.6c-0.05-0.02-0.11-0.04-0.16-0.06
		c-0.07-1.04-0.35-2.18-0.89-3.45c-0.23-0.53-0.49-1.01-0.78-1.45c4.58-1.24,8.44-3.45,11.4-6.59c2.16-2.29,7.21-7.64,4.29-14.39
		c-0.65-1.51-3.32-6.42-10.33-6.42c-1.71,0-3.51,0.29-5.78,0.65c-3.18,0.51-7.53,1.2-12.53,1.2c-0.3,0-0.6,0-0.9-0.01
		c-5.45-0.09-8.85-0.82-12.46-1.6c-2.7-0.58-5.49-1.18-8.9-1.47c-0.87-0.07-1.73-0.11-2.58-0.11c-10.69,0-19.29,6.06-20.92,14.75
		c-0.59,3.14,0.22,6.32,2.22,8.73c1.19,1.44,3.88,3.85,8.48,3.85c0.11,0,0.21,0,0.32,0c-1.29,4.15-2.79,8.75-4.26,13.06
		c-0.14-0.01-0.28-0.02-0.43-0.03c-0.75-0.06-1.6-0.12-2.5-0.12c-7.52,0-10.32,5.13-11,6.7c-1.9,4.4-1.27,9.89,1.65,14.34
		c1.01,1.54,2.23,2.85,3.58,3.87c-0.9,2.72-2.05,5.98-3.03,7.6c-0.79-0.15-1.58-0.23-2.35-0.23c0,0,0,0,0,0
		c-3.94,0-7.45,1.99-9.38,5.33c-0.98,1.7-2.9,6.3,0.5,12.19c2.74,4.75,8.45,9.54,15.03,9.54c0.45,0,0.91-0.02,1.36-0.07
		c8.49-0.85,14.43-6.75,18.94-14.75c0.22,0.34,0.45,0.68,0.69,1.01c2.93,3.92,7.43,6.18,12.35,6.18c1.88,0,3.78-0.33,5.65-0.98
		c1.37-0.48,4.14-1.44,9.72-7.13c0.41,0.91,0.93,1.79,1.56,2.63c2.59,3.44,6.54,5.33,11.1,5.33c2.71,0,5.61-0.67,8.85-2.04
		c1.74-0.73,3.47-1.61,5.15-2.53c1.28,1.11,2.85,2.14,4.77,2.95c0.8,0.34,1.73,0.66,4.26,0.95c0.97,0.11,1.95,0.17,2.93,0.17
		c5.99,0,11.8-2.04,17.58-6.19c0.4,0.54,0.84,1.06,1.3,1.54c2.9,3.01,6.86,4.67,11.16,4.67c4.54,0,7.9-1.78,8.82-2.32
		c0.36-0.21,0.74-0.45,1.15-0.71c2.73,2,5.96,3.06,9.35,3.06c4.18,0,8.15-1.59,11.5-4.61c0.88-0.79,1.7-1.67,2.48-2.64
		c2.81,3.61,6.84,6.06,11.66,6.96c1.31,0.24,2.62,0.37,3.92,0.37c3.36,0,8.78-0.86,13.91-5.41c1.62,2.08,3.6,3.33,5.22,4.06
		c2.45,1.11,4.98,1.67,7.52,1.67c2.63,0,5-0.57,7.12-1.5c2.01,1.32,4.4,2.05,6.87,2.05c0.26,0,0.51-0.01,0.77-0.02
		c2.68-0.17,5.68-1.06,8.23-2.73c3.39,3.2,7.63,4.99,12.17,4.99c0.18,0,0.37,0,0.55-0.01c1.8,2.98,5.07,4.87,8.74,4.87
		c1.32,0,2.54-0.23,4.25-0.59c12.52-2.61,21.68-10.78,23.36-20.83c1.22-7.32-0.68-13.08-2.07-17.29
		C294.24,89.16,293.65,87.37,293.62,86.69z"/>
	<path class="st0" d="M206.65,85.87c-0.04,0-0.09,0.01-0.14,0.03c-0.26,0.09-0.51,0.14-0.77,0.14c-2.06,0-3.98-2.76-3.79-3.88
		c0.05-0.29-0.07-0.41-0.28-0.41c-0.51,0-1.55,0.69-2.16,1.38c-3.42,3.91-6.16,13.4-4.54,16.97c0.85,1.87,2.26,2.76,3.82,2.76
		c1.41,0,2.96-0.73,4.32-2.11C206.74,97.07,208.23,85.87,206.65,85.87z"/>
</g>
<g>
	<g>
		<path class="st1" d="M268.1,37.53c-0.45-1.85-1.02-2.64-1.69-2.64c-3.21,0-8.48,18.51-11.18,26.69
			C262.08,51.48,269.38,42.82,268.1,37.53z"/>
	</g>
	<g>
		<path class="st1" d="M130.43,81.52c-0.22-1.05-0.88-1.51-1.79-1.51c-1.99,0-5.19,2.22-7.55,5.21c-1.72,2.18-3.34,4.7-4.23,8.96
			c-0.11,1.3,0.09,1.32,0.09,1.32c0.44-0.26,5.77-4.28,6.79-5.11C127.78,87.07,130.97,84.13,130.43,81.52z"/>
	</g>
	<g>
		<path class="st1" d="M288.72,85.75c0.1-0.44,0.18-0.86,0.26-1.26c0.53-2.62,0.75-3.7,2.75-6.33c1.4-1.85,1.62-4.32,0.57-6.43
			c-1.63-3.27-5.96-5.04-9.21-5.04c-3.18,0-5.83,1.56-7.1,4.18l-0.2,0.42c-0.19,0.38-0.38,0.77-0.57,1.18
			c-0.18-2.18-1.03-4.74-3.32-7.31c-1.27-1.43-2.64-2.45-4.17-3.09c2.93-3.51,6.1-7.84,8.25-12.51c5.65-12.25,1.7-20.98-2.6-26.15
			c-2.34-2.81-4.9-3.4-6.64-3.4c0,0,0,0,0,0c-9.49,0-15.77,16.44-25.48,53.08c-0.19-1.59-0.83-3.13-1.88-4.44
			c-1.88-2.34-4.77-3.64-8.14-3.64c-1.77,0-3.67,0.36-5.62,1.08c-2.43,0.89-4.89,2-7.06,2.97c-1.27,0.57-2.49,1.12-3.58,1.57
			c-2.64-2.55-6.03-3.29-9.3-3.8c-0.85-0.13-1.83-0.2-3-0.2c-4.32,0-10.97,0.92-16.26,1.87c-1.81-2.07-4.69-3.25-8.1-3.25
			c-3.4,0-7.71,1.26-9.6,4.81c-2.61,4.92-1.95,8.52-0.93,10.68c0.05,0.1,0.1,0.21,0.15,0.31c-2.31-1.71-5.07-2.91-7.02-2.91
			c-0.5,0-0.98,0.06-1.44,0.17c1.13-5.36,1.06-8.13-1.48-10.15c-1.89-1.5-3.87-2.26-5.87-2.26c-5.32,0-7.99,4.7-9.59,9.79
			c-0.31-2.11-1.19-4.06-2.62-5.75c-1.7-2.02-4.33-3.13-7.41-3.13c-6.64,0-15.65,5.2-21.5,13.99c2.14-5.86,2.44-8.02,1.64-10.13
			c-1.34-3.56-4.53-5.77-8.33-5.77c-2.86,0-5.94,1.2-9.15,3.56c-0.5,0.37-0.97,0.74-1.41,1.11c-0.19-0.17-0.39-0.33-0.59-0.48
			c-1.5-1.13-3.3-1.82-5.13-2c0.69-1.64,0.66-3.69-0.43-6.23C83.25,50.64,70,57.37,65.44,67.31c-0.55,1.19-1.31,2.81-1.51,4.19
			c-0.52,0.07-1.06,0.15-1.63,0.24c1.7-5.84,4.52-13.09,6.37-17.22c0.11-0.24,0.19-0.4,0.26-0.52c3.22,0.03,6.78,0.29,9.17,0.47
			c1.04,0.08,1.89,0.14,2.48,0.17c0.63,0.03,1.26,0.05,1.88,0.05c7.31,0,13.19-2.13,17-6.17c1.97-2.09,4.95-5.25,3.34-8.98
			c-0.44-1.02-1.88-3.4-5.74-3.4c-1.32,0-2.86,0.25-4.99,0.59c-3.34,0.53-7.92,1.26-13.32,1.26c-0.32,0-0.65,0-0.98-0.01
			c-5.94-0.1-9.74-0.92-13.42-1.71c-2.55-0.55-5.18-1.11-8.28-1.38c-0.72-0.06-1.45-0.09-2.15-0.09c-9.62,0-15.04,5.53-16,10.67
			c-0.31,1.67,0.11,3.36,1.15,4.62c0.63,0.76,2.08,2.04,4.63,2.04c1.23,0,2.48-0.28,3.92-0.6c1.15-0.26,2.57-0.58,3.44-0.58l0.02,0
			c-1.72,6.06-4.68,15.35-7.39,23.18c-0.04,0.12-0.11,0.33-0.18,0.52c-0.21,0.08-0.52,0.18-0.96,0.31l-0.13,0.03
			c-0.24,0.06-0.47,0.11-0.68,0.18c-0.04,0.01-0.3,0.08-0.94,0.08c-0.56,0-1.21-0.05-1.85-0.1c-0.69-0.05-1.41-0.11-2.12-0.11
			c-4.19,0-5.82,2.31-6.41,3.69c-1.48,3.43-0.33,7.21,1.24,9.61c1.41,2.15,3.34,3.58,5.48,4.11c-0.24,0.73-0.48,1.47-0.71,2.19
			c-2.49,7.7-4.49,13.15-7.46,13.15c-0.4,0-0.86-0.07-1.37-0.2c-0.66-0.17-1.3-0.26-1.92-0.26c0,0,0,0,0,0
			c-2.14,0-4.02,1.06-5.05,2.83c-0.83,1.44-1.42,3.86,0.5,7.19c1.96,3.39,6.14,7.04,10.7,7.04c0.29,0,0.58-0.01,0.86-0.04
			c5.76-0.58,10.63-4.49,14.91-11.98c2.91-5.1,5.57-11.8,8.63-21.7c0.42-0.29,1.49-0.68,2.08-0.9c0.34-0.13,0.67-0.25,0.98-0.37
			c-0.86,2.68-1.84,5.58-2.48,7.48c-0.77,2.3-1.39,4.12-1.66,5.05c-1.12,3.76-0.49,7.75,1.68,10.66c1.97,2.65,5.01,4.16,8.34,4.16
			c1.32,0,2.67-0.24,4-0.7c4.02-1.4,10.39-8.27,15.82-15.25c-1.03,3.77-1.61,8.86,1.1,12.45c1.63,2.16,4.15,3.34,7.11,3.34
			c2.03,0,4.29-0.54,6.9-1.64c2.74-1.16,5.58-2.75,8.13-4.28c1.21,1.81,2.96,3.55,5.67,4.69c0.35,0.15,0.87,0.36,2.9,0.6
			c0.78,0.09,1.57,0.14,2.35,0.14c6.46,0,12.83-3,19.34-9.14c0.6,2.48,1.65,4.47,3.14,6.02c1.97,2.05,4.59,3.14,7.55,3.14
			c2.6,0,5.01-0.88,6.28-1.63c1.13-0.67,2.57-1.64,4.06-2.98c0.67,0.89,1.51,1.75,2.59,2.54c1.87,1.37,4.08,2.09,6.39,2.09
			c2.8,0,9.77-1.21,13.86-12.39l0.05-0.15c0.21-0.58,0.46-1.26,0.74-2.02c0.14,1.74,0.45,3.41,0.98,4.96
			c1.74,5.07,5.62,8.41,10.93,9.4c1,0.19,2.01,0.28,3,0.28c6.48,0,12.01-4.05,15.75-10.88c-0.06,4.97,1.76,8.31,5.44,9.97
			c1.8,0.81,3.64,1.22,5.47,1.22c2.21,0,4.77-0.44,7.88-2.68c0.23,0.35,0.49,0.68,0.78,0.99c1.35,1.42,3.3,2.24,5.33,2.24
			c0.15,0,0.3,0,0.46-0.01c3.21-0.2,7.33-1.96,8.88-5.36c2.76,4.85,7.02,7.61,11.83,7.61c1.38,0,2.76-0.24,4.09-0.7
			c-0.05,0.59,0.01,1.24,0.23,1.95c0.65,2.16,2.65,3.6,4.97,3.6c0.78,0,1.59-0.14,3.23-0.49c10.48-2.18,18.11-8.76,19.45-16.76
			c1.02-6.1-0.59-10.98-1.89-14.9C289.07,89.41,288.38,87.33,288.72,85.75z M270.69,83.45c-3.81,10.16-7.3,16.88-9.34,19.81
			c-1.37-2.51-2.67-7.88-3.32-10.6C263.68,89.52,267.86,86.49,270.69,83.45z"/>
	</g>
</g>
<g>
	<path class="st2" d="M69.19,69.59c4.09-1.41,16.68-2.25,14.18-6.97C79.41,55.12,67.68,70.11,69.19,69.59z"/>
	<path class="st2" d="M287.73,75.14c1.58-2.09-5.69-5.3-7.25-2.09c-1.09,2.26-2.3,4.65-3.01,7.38c-0.43,0.62-1.06,1.94-1.9,4.21
		c-3.44,9.25-10.38,25.4-14.26,24.72c-5-0.87-6.81-10.05-8.58-17.32c-0.16-0.65-0.95-1.72,0.85-2.66
		c8.97-4.73,21.74-12.84,14.57-20.9c-2.01-2.26-3.96-2.62-7.93-1.9c-5.17,0.93-2.48-0.91-1.3-2.17c7.86-8.41,21.96-24.17,10.6-37.79
		c-9.76-11.7-22.19,43.88-27.71,63.89c-0.06,0.22-0.13,0.43-0.26,0.61c-1.95,2.82-11.73,14.55-14.57,14.31
		c-4.09-0.35,7.17-21.28,9.23-30.62c0.61-2.76-2.39-6.41-8.91-4.02c-4.27,1.57-8.71,3.87-11.95,5.05c-1.06,0.39-2.56-0.01-3.25-0.9
		c-1.46-1.91-3.47-2.58-7.24-3.17c-3.64-0.57-12.97,0.77-19.08,1.92c-1.03,0.2-1.63,0-2.73-1.2l0.02,0.01
		c-1.52-3.26-8.59-2.71-9.97-0.1c-4.01,7.55,2.89,9.05,3.24,9.12c0,0.03,0.01,0.04,0.02,0.07c-0.01,0.99-2.71,15.25-5.21,18.83
		c-2.61,3.75-5.82,2.93-5.54-5.43c0.22-6.52,2.61-4.34,1.63-7.49c-0.61-1.95-7.98-6.43-6.84-3.26c1.39,3.86-4.11,17.11-6.78,18.38
		c-9.42,4.45,3.6-28.67,1.24-30.54c-6.47-5.13-8.26,7.81-9.61,13.64c-0.05,0.22-0.14,0.42-0.27,0.6c-4.96,6.94-17.59,18-24,16.38
		c-1.04-0.26-1.85-0.74-2.47-1.38c-0.84-0.87-0.59-2.32,0.47-2.89c11.25-6.02,22.96-18.32,17.09-25.28
		c-3.67-4.35-18.61,1.94-24.11,16.62c-1.63,4.34-1.59,6.78-1.68,7.65c-0.06,0.62,0,1.4-0.54,1.71c-6.03,3.41-13.1,7.77-12.54,4.97
		c1.63-8.14,11.71-29.07,10.74-31.68c-1.15-3.06-4.74-3.69-9.84,0.06c-1.9,1.39-3.38,3.02-5.26,4.23c-0.36,0.23-0.72,0.05-0.78-0.38
		c-0.19-1.43-0.89-2.48-1.93-3.26c-1.52-1.14-3.97-1.67-6.28,0.12c-2.2,1.71-3.84,5.54-2.55,7.98c0.26,0.5,0.56,0.94,0.91,1.32
		c1.07,1.15,1.16,3.28,0.33,4.61c-4.1,6.6-10.36,15.35-13.94,16.32c-3.27,0.89,5.1-16.55,6.08-23.06c0.72-4.83-1.01-5.61-16.6-2.86
		c-1.11,0.2-2.12-0.62-1.93-1.73c1.15-6.45,5.33-17.51,7.94-23.31c0.56-1.24,1.74-3.48,4.34-3.48c4.85,0,10.34,0.55,12.38,0.65
		c4.34,0.22,10.98-0.31,14.99-4.56c7.17-7.6-2.33-1.85-18.14-2.11c-10.64-0.18-15.02-2.5-22.05-3.1c-7.6-0.65-12.16,3.04-12.81,6.52
		c-0.36,1.93,4.89-0.54,8.47-0.43c0.82,0.02,4.19,0.38,5.21,1.19c0.83,0.66,0.53,1.04-0.28,3.97c-1.72,6.23-4.91,16.28-7.81,24.65
		c-0.81,2.34-1.12,3.02-4.48,3.99c-0.27,0.08-0.53,0.12-0.77,0.19c-3.06,0.92-7.5-0.77-8.16,0.76c-1.1,2.55,1.36,7.28,4.29,6.95
		l3.75-0.49c1.17-0.19,0.07,3.28-0.33,4.4c-3.77,10.71-6.1,23.56-16.4,20.85c-4.13-1.09,1.28,7.41,5.86,6.95
		c8.69-0.87,14.36-14.28,19.33-30.41c0.85-2.76,4.18-3.48,6.19-4.32c0.98-0.41,8.62-3.72,8.4-1.11c-0.22,2.61-5.3,16.91-6.17,19.83
		c-1.52,5.1,2.17,9.86,7.58,7.97c4.68-1.63,18.36-18.69,22.39-26.74c0.2-0.4,0.55-0.7,0.97-0.86c5.07-2.02,9.11-8.52,8.46-6.82
		c-3.26,8.47-8.58,21.88-9.45,24.92c-0.87,3.04-3.04,13.3,8.25,8.52c3.53-1.49,7.45-3.91,10.48-5.76c1.25-0.76,2.09-0.09,2.55,0.98
		c0.92,2.15,2.05,4.09,4.66,5.18c0.14,0.06,1.38,0.22,1.54,0.24c8.47,0.98,16.01-5.18,22.31-12.56c4.98-5.84,3.27-0.35,3.21,1.38
		c-0.57,14.54,8.58,11.23,10.03,10.38c1.92-1.14,4.12-2.91,5.93-5.3c0.96-1.27,2.33-3.61,3.09-0.24c0.5,2.21,1.21,3.96,3.13,5.37
		c3.26,2.39,9.12,1.52,12.6-7.98c1.42-3.89,4.34-11.84,6.19-20.2c0.18-0.79,0.64-2.56,1.41-2.82c5.55-1.94,12.52-3.31,9.52,0.09
		c-4.89,5.54-12.89,29.29,1.19,31.93c10.73,2.01,17.45-11.63,17.96-26.94c0.05,0.01,0.12,0,0.22-0.04c4.93-2.23,9.45-4.92,13.8-7.63
		c-1.3,6.52-14.59,30.76-6.65,34.35c6.01,2.71,10.63-2.03,15.08-8.26c2.44-3.42,2.5-1.93,1.98-0.02c-0.98,3.58-1.7,6.08-1.79,7.82
		c-0.06,1.13,1.16,1.86,2.28,1.79c1.62-0.1,4.04-1.02,4.67-2.5c2.23-5.24,3.74-15.6,4.13-13.68c0.43,2.17,0.24,4.39,4.34,12.6
		c3.75,7.49,10.59,7.19,14.75,2.3c4.02-4.72,10.12-22,10.15-22.1c0.57,2.12,1.19,3.26,2.18,5.55c8.55,19.98-17.96,26.68-7.69,24.54
		c7.47-1.56,14.44-6.13,15.53-12.68c1.52-9.12-4.41-15.16-3.06-21.42C284.58,81.17,284.69,79.16,287.73,75.14z M116.94,95.49
		c0,0-0.2-0.01-0.09-1.32c0.9-4.26,2.51-6.78,4.24-8.96c3.45-4.35,8.64-7.06,9.34-3.69c0.54,2.61-2.65,5.55-6.69,8.86
		C122.71,91.21,117.38,95.22,116.94,95.49z M203.12,100.74c-2.88,2.91-6.53,2.91-8.14-0.65c-1.61-3.56,1.12-13.06,4.54-16.97
		c0.87-0.99,2.61-1.95,2.44-0.98c-0.21,1.26,2.24,4.59,4.56,3.75C208.31,85.24,206.85,96.97,203.12,100.74z M268.1,37.53
		c1.28,5.29-6.03,13.95-12.87,24.05C258.49,51.7,265.5,26.78,268.1,37.53z M250.57,83.78c-1.73,0.28,4.58-13.5,10.43-11.71
		C266.65,73.81,258.61,82.5,250.57,83.78z"/>
</g>
</svg>
