<?xml version="1.0" encoding="utf-8"?>
<!-- Generator: Adobe Illustrator 23.0.6, SVG Export Plug-In . SVG Version: 6.00 Build 0)  -->
<svg version="1.1" id="Layer_1" xmlns="http://www.w3.org/2000/svg" xmlns:xlink="http://www.w3.org/1999/xlink" x="0px" y="0px"
	 viewBox="0 0 373.68 159.31" style="enable-background:new 0 0 373.68 159.31;" xml:space="preserve">
<style type="text/css">
	.st0{fill:none;}
	.st1{fill:#E6274F;}
	.st2{font-family:'FuturaBT-Bold';}
	.st3{font-size:30px;}
	.st4{letter-spacing:3;}
	.st5{letter-spacing:4;}
	.st6{letter-spacing:5;}
	.st7{letter-spacing:2;}
	.st8{fill:#63C2CD;}
	.st9{fill:#F3CF05;}
</style>
<rect x="104.06" y="66.94" class="st0" width="226.75" height="39.09"/>
<text transform="matrix(1 0 0 1 104.0633 89.6477)"><tspan x="0" y="0" class="st1 st2 st3 st4">F</tspan><tspan x="19.92" y="0" class="st1 st2 st3 st5">I</tspan><tspan x="34.89" y="0" class="st1 st2 st3 st4">R</tspan><tspan x="57.72" y="0" class="st1 st2 st3 st6">E</tspan><tspan x="80.13" y="0" class="st1 st2 st3 st7">W</tspan><tspan x="111.75" y="0" class="st1 st2 st3 st4">O</tspan><tspan x="140.43" y="0" class="st1 st2 st3 st5">R</tspan><tspan x="163.86" y="0" class="st1 st2 st3 st4">K</tspan><tspan x="188.61" y="0" class="st1 st2 st3 st4">S</tspan></text>
<g>
	<path class="st8" d="M92.5,72.93c-4.32-11.65-20.23-10.83-29.16,3.01c-3.9,6.05-7.09,18.24,4.4,17.19
		C84.4,91.6,97.85,87.38,92.5,72.93z M67.73,88.22c-5.54,0.49-3.19-4.32-1.95-7c4.56-9.94,17.19-17.25,22.15-6.46
		C93.2,86.21,76.04,87.48,67.73,88.22z"/>
	<g>
		<path class="st1" d="M65.78,81.21c-1.23,2.69-3.58,7.49,1.95,7c8.31-0.73,25.47-2.01,20.2-13.47
			C82.97,63.96,70.34,71.27,65.78,81.21z M69.36,83.49c-1.51,0.52,10.22-14.46,14.18-6.97C86.04,81.24,73.44,82.08,69.36,83.49z"/>
	</g>
	<path class="st9" d="M69.36,83.49c4.09-1.41,16.68-2.25,14.18-6.97C79.58,69.02,67.85,84.01,69.36,83.49z"/>
</g>
</svg>
